<svg width="32" height="32" viewBox="0 0 32 32" fill="none" xmlns="http://www.w3.org/2000/svg">
  <!-- Version optimisée pour favicon basée sur icon-digital-care-v3 -->
  <!-- Main gauche -->
  <path d="M8 19C8 19 8.8 16 10.4 15.2C11.2 14.8 12 14.8 12.4 15.6V20C12.4 21.2 12 22.4 10.8 22.8C9.6 23.2 8 22 8 20.8V19Z"
        stroke="#004C97"
        stroke-width="2"
        stroke-linecap="round"
        stroke-linejoin="round"
        fill="none"/>

  <!-- Main droite -->
  <path d="M24 19C24 19 23.2 16 21.6 15.2C20.8 14.8 20 14.8 19.6 15.6V20C19.6 21.2 20 22.4 21.2 22.8C22.4 23.2 24 22 24 20.8V19Z"
        stroke="#004C97"
        stroke-width="2"
        stroke-linecap="round"
        stroke-linejoin="round"
        fill="none"/>

  <!-- Cœur -->
  <path d="M16 23.2C16 23.2 11.2 19.2 11.2 14.8C11.2 12.8 12.4 11.6 14 11.6C15.2 11.6 16 12.4 16 13.6C16 12.4 16.8 11.6 18 11.6C19.6 11.6 20.8 12.8 20.8 14.8C20.8 19.2 16 23.2 16 23.2Z"
        fill="#004C97"
        opacity="0.25"/>

  <path d="M16 23.2C16 23.2 11.2 19.2 11.2 14.8C11.2 12.8 12.4 11.6 14 11.6C15.2 11.6 16 12.4 16 13.6C16 12.4 16.8 11.6 18 11.6C19.6 11.6 20.8 12.8 20.8 14.8C20.8 19.2 16 23.2 16 23.2Z"
        stroke="#004C97"
        stroke-width="2"
        stroke-linecap="round"
        stroke-linejoin="round"
        fill="none"/>

  <!-- Croix centrale -->
  <path d="M16 15.2V16.8M15.2 16H16.8"
        stroke="#004C97"
        stroke-width="2"
        stroke-linecap="round"/>
</svg>
