<svg width="40" height="40" viewBox="0 0 40 40" fill="none" xmlns="http://www.w3.org/2000/svg">
  <!-- Version 2: Main unique protégeant un cœur digital -->

  <!-- Main protectrice (forme plus large) -->
  <path d="M6 18C6 18 8 12 12 10C14 9 16 9 17 10C18 11 18 12 17 14L14 20C13 22 11 24 9 25C7 26 6 25 6 23V18Z"
        stroke="#004C97"
        stroke-width="1.8"
        stroke-linecap="round"
        stroke-linejoin="round"
        fill="none"/>

  <path d="M34 18C34 18 32 12 28 10C26 9 24 9 23 10C22 11 22 12 23 14L26 20C27 22 29 24 31 25C33 26 34 25 34 23V18Z"
        stroke="#004C97"
        stroke-width="1.8"
        stroke-linecap="round"
        stroke-linejoin="round"
        fill="none"/>

  <!-- Cœur avec motif de circuit -->
  <path d="M20 28C20 28 14 23 14 18C14 15.5 15.5 14 17.5 14C19 14 20 15 20.5 16C21 15 22 14 23.5 14C25.5 14 27 15.5 27 18C27 23 20 28 20 28Z"
        fill="#004C97"
        opacity="0.15"/>

  <path d="M20 28C20 28 14 23 14 18C14 15.5 15.5 14 17.5 14C19 14 20 15 20.5 16C21 15 22 14 23.5 14C25.5 14 27 15.5 27 18C27 23 20 28 20 28Z"
        stroke="#004C97"
        stroke-width="1.8"
        stroke-linecap="round"
        stroke-linejoin="round"
        fill="none"/>

  <!-- Motif de circuit digital dans le cœur -->
  <path d="M17 18H19M21 18H23M20 16V20"
        stroke="#004C97"
        stroke-width="1.2"
        stroke-linecap="round"
        opacity="0.5"/>

  <!-- Points de connexion -->
  <circle cx="17" cy="18" r="1.2" fill="#004C97" opacity="0.7"/>
  <circle cx="23" cy="18" r="1.2" fill="#004C97" opacity="0.7"/>
  <circle cx="20" cy="16" r="1.2" fill="#004C97" opacity="0.7"/>
  <circle cx="20" cy="20" r="1.2" fill="#004C97" opacity="0.7"/>
</svg>
