<svg width="40" height="40" viewBox="0 0 40 40" fill="none" xmlns="http://www.w3.org/2000/svg">
  <!-- Main gauche -->
  <path d="M8 22C8 22 10 20 12 20C13 20 13.5 20.5 13.5 21.5V26C13.5 27 13 28 12 28C10 28 8 26 8 24V22Z"
        stroke="#004C97"
        stroke-width="1.8"
        stroke-linecap="round"
        stroke-linejoin="round"
        fill="none"/>

  <!-- Main droite -->
  <path d="M32 22C32 22 30 20 28 20C27 20 26.5 20.5 26.5 21.5V26C26.5 27 27 28 28 28C30 28 32 26 32 24V22Z"
        stroke="#004C97"
        stroke-width="1.8"
        stroke-linecap="round"
        stroke-linejoin="round"
        fill="none"/>

  <!-- Cœur central -->
  <path d="M20 27C20 27 13.5 22 13.5 17C13.5 14.5 15 13 17 13C18.5 13 19.5 14 20 15C20.5 14 21.5 13 23 13C25 13 26.5 14.5 26.5 17C26.5 22 20 27 20 27Z"
        fill="#004C97"
        opacity="0.15"/>

  <path d="M20 27C20 27 13.5 22 13.5 17C13.5 14.5 15 13 17 13C18.5 13 19.5 14 20 15C20.5 14 21.5 13 23 13C25 13 26.5 14.5 26.5 17C26.5 22 20 27 20 27Z"
        stroke="#004C97"
        stroke-width="1.8"
        stroke-linecap="round"
        stroke-linejoin="round"
        fill="none"/>

  <!-- Détails digitaux - petits pixels autour du cœur -->
  <circle cx="16" cy="17" r="1" fill="#004C97" opacity="0.6"/>
  <circle cx="24" cy="17" r="1" fill="#004C97" opacity="0.6"/>
  <circle cx="20" cy="24" r="1" fill="#004C97" opacity="0.6"/>

  <!-- Ligne de connexion subtile (aspect digital) -->
  <path d="M16 17L20 19L24 17"
        stroke="#004C97"
        stroke-width="0.8"
        stroke-linecap="round"
        opacity="0.4"
        stroke-dasharray="1 2"/>
</svg>
