<svg width="40" height="40" viewBox="0 0 40 40" fill="none" xmlns="http://www.w3.org/2000/svg">
  <!-- Version 3: Style plus géométrique et moderne -->

  <!-- Main gauche stylisée -->
  <path d="M10 24C10 24 11 20 13 19C14 18.5 15 18.5 15.5 19.5V25C15.5 26.5 15 28 13.5 28.5C12 29 10 27.5 10 26V24Z"
        stroke="#004C97"
        stroke-width="2"
        stroke-linecap="round"
        stroke-linejoin="round"
        fill="none"/>

  <!-- Main droite stylisée -->
  <path d="M30 24C30 24 29 20 27 19C26 18.5 25 18.5 24.5 19.5V25C24.5 26.5 25 28 26.5 28.5C28 29 30 27.5 30 26V24Z"
        stroke="#004C97"
        stroke-width="2"
        stroke-linecap="round"
        stroke-linejoin="round"
        fill="none"/>

  <!-- Cœur avec effet de bouclier -->
  <path d="M20 29C20 29 14 24 14 18.5C14 16 15.5 14.5 17.5 14.5C19 14.5 20 15.5 20 17C20 15.5 21 14.5 22.5 14.5C24.5 14.5 26 16 26 18.5C26 24 20 29 20 29Z"
        fill="#004C97"
        opacity="0.2"/>

  <path d="M20 29C20 29 14 24 14 18.5C14 16 15.5 14.5 17.5 14.5C19 14.5 20 15.5 20 17C20 15.5 21 14.5 22.5 14.5C24.5 14.5 26 16 26 18.5C26 24 20 29 20 29Z"
        stroke="#004C97"
        stroke-width="2"
        stroke-linecap="round"
        stroke-linejoin="round"
        fill="none"/>

  <!-- Croix/Plus digital au centre (symbole de santé/soin digital) -->
  <path d="M20 19V21M19 20H21"
        stroke="#004C97"
        stroke-width="2"
        stroke-linecap="round"/>

  <!-- Petits accents digitaux -->
  <circle cx="17" cy="19" r="0.8" fill="#004C97" opacity="0.6"/>
  <circle cx="23" cy="19" r="0.8" fill="#004C97" opacity="0.6"/>
</svg>
